<svg width="28" height="27" viewBox="0 0 28 27" fill="none" xmlns="http://www.w3.org/2000/svg">
<path d="M24.987 17.2792C24.8484 17.3737 21.974 20.3537 21.974 22.4451C21.974 24.6502 23.4036 26.0583 24.987 26.1351C26.3519 26.2 28 24.82 28 22.4451C28 20.2312 25.1256 17.3737 24.987 17.2792ZM9.29818 26.1351C9.86764 26.693 10.6239 27 11.4284 27C12.2329 27 12.9891 26.693 13.5586 26.1351L24.1042 15.8033L23.0391 14.7597L11.4284 3.38441L7.97396 0L5.84375 2.08703L9.29818 5.47144L0.882815 13.7162C0.313354 14.2741 0 15.0151 0 15.8033C0 16.5914 0.313354 17.3324 0.882815 17.8903L9.29818 26.1351ZM11.4284 7.55847L19.8438 15.8033H3.01302L11.4284 7.55847Z" fill="#876445"/>
</svg>
