<svg width="128" height="128" viewBox="0 0 16 16" fill="none" xmlns="http://www.w3.org/2000/svg">
<path d="M6.27733 1C5.06997 1.32369 3.96909 1.95947 3.0853 2.84344C2.20151 3.72741 1.56597 4.82843 1.24253 6.03585C0.919092 7.24328 0.919158 8.51456 1.24272 9.72195C1.56629 10.9293 2.20195 12.0303 3.08583 12.9142C3.96971 13.7981 5.07066 14.4337 6.27805 14.7573C7.48544 15.0808 8.75672 15.0809 9.96415 14.7575C11.1716 14.434 12.2726 13.7985 13.1566 12.9147C14.0405 12.0309 14.6763 10.93 15 9.72267C15 9.72267 11.3578 11.1164 8.12038 7.87898C4.88422 4.64219 6.27733 1 6.27733 1Z" stroke="#282018" stroke-width="2" stroke-linecap="round" stroke-linejoin="round"/>
</svg>
