<svg width="128" height="128" viewBox="0 0 16 16" fill="none" xmlns="http://www.w3.org/2000/svg">
<path d="M12.8678 11.0769V6.97436C12.8678 4.45538 11.5381 2.34667 9.21933 1.78872V1.23077C9.21933 0.549744 8.66801 0 7.99507 0C7.32213 0 6.78702 0.549744 6.78702 1.23077V1.78872C4.46011 2.34667 3.13855 4.44718 3.13855 6.97436V11.0769L2.08455 12.1354C1.57376 12.6523 1.9305 13.5385 2.65209 13.5385H13.3299C14.0515 13.5385 14.4164 12.6523 13.9056 12.1354L12.8678 11.0769ZM7.99507 16C8.88692 16 9.61661 15.2615 9.61661 14.359H6.37353C6.37353 14.7942 6.54437 15.2116 6.84847 15.5194C7.15256 15.8271 7.56501 16 7.99507 16ZM3.76284 1.82974C4.10337 1.51795 4.11148 0.984615 3.78717 0.65641C3.6381 0.5063 3.43723 0.420678 3.22696 0.417616C3.01669 0.414554 2.81347 0.494292 2.6602 0.64C1.24541 1.94565 0.310643 3.69879 0.00897599 5.61231C-0.0639934 6.11282 0.317069 6.5641 0.819747 6.5641C1.20892 6.5641 1.54944 6.27692 1.6143 5.88308C1.85323 4.32369 2.61125 2.89366 3.76284 1.82974ZM13.3543 0.64C13.03 0.33641 12.5273 0.344615 12.2192 0.65641C11.8949 0.984615 11.9111 1.50974 12.2435 1.82154C13.3624 2.86359 14.1488 4.28308 14.392 5.87487C14.4488 6.26872 14.7893 6.5559 15.1866 6.5559C15.6812 6.5559 16.0703 6.10462 15.9893 5.6041C15.6812 3.65949 14.7326 1.92821 13.3543 0.64Z" fill="#282018"/>
</svg>
