<svg xmlns="http://www.w3.org/2000/svg" width="36" height="28" fill="none" viewBox="0 0 36 28">
  <g filter="url(#a)">
    <path fill="#876445" d="m26.91 7-5.092 5h3.818c0 4.137-3.423 7.5-7.636 7.5a7.58 7.58 0 0 1-3.564-.875l-1.858 1.825A10.228 10.228 0 0 0 18 22c5.625 0 10.182-4.475 10.182-10H32l-5.09-5Zm-16.546 5c0-4.138 3.423-7.5 7.636-7.5a7.58 7.58 0 0 1 3.564.875l1.858-1.825A10.228 10.228 0 0 0 18 2C12.374 2 7.818 6.475 7.818 12H4l5.09 5 5.092-5h-3.818Z"/>
  </g>
  <defs>
    <filter id="a" width="36" height="28" x="0" y="0" color-interpolation-filters="sRGB" filterUnits="userSpaceOnUse">
      <feFlood flood-opacity="0" result="BackgroundImageFix"/>
      <feColorMatrix in="SourceAlpha" result="hardAlpha" values="0 0 0 0 0 0 0 0 0 0 0 0 0 0 0 0 0 0 127 0"/>
      <feOffset dy="2"/>
      <feGaussianBlur stdDeviation="2"/>
      <feComposite in2="hardAlpha" operator="out"/>
      <feColorMatrix values="0 0 0 0 0.529412 0 0 0 0 0.392157 0 0 0 0 0.270588 0 0 0 0.25 0"/>
      <feBlend in2="BackgroundImageFix" result="effect1_dropShadow_87_25"/>
      <feBlend in="SourceGraphic" in2="effect1_dropShadow_87_25" result="shape"/>
    </filter>
  </defs>
</svg>
