<svg width="150" height="128" viewBox="0 0 20 17" fill="none" xmlns="http://www.w3.org/2000/svg">
<path d="M11.3138 16.3188C11.1354 16.3158 10.9623 16.2569 10.8191 16.1504L5.77793 12.109H0.789335C0.580838 12.1062 0.381647 12.0222 0.234205 11.8748C0.0867628 11.7273 0.0027258 11.5281 0 11.3196V5.00496C0.0027258 4.79646 0.0867628 4.59727 0.234205 4.44983C0.381647 4.30239 0.580838 4.21835 0.789335 4.21563H5.77793L10.8191 0.174234C10.9355 0.0806354 11.0761 0.0219773 11.2245 0.00507278C11.3729 -0.0118317 11.523 0.0137112 11.6575 0.0787347C11.7919 0.143758 11.9052 0.245593 11.9841 0.372412C12.0629 0.499231 12.1042 0.645829 12.1031 0.795177V15.5294C12.1022 15.6791 12.0593 15.8255 11.9793 15.9521C11.8993 16.0786 11.7854 16.1801 11.6506 16.2451C11.5456 16.2956 11.4303 16.3208 11.3138 16.3188ZM1.57867 10.5303H6.05157C6.23039 10.5311 6.40407 10.5902 6.54622 10.6987L10.5245 13.856V2.43699L6.54622 5.59433C6.4082 5.7142 6.23411 5.78458 6.05157 5.7943H1.57867V10.5303ZM17.0602 14.5506C16.8713 14.5504 16.6886 14.4833 16.5445 14.3612C16.465 14.2937 16.3999 14.2109 16.353 14.1178C16.3062 14.0246 16.2785 13.923 16.2716 13.819C16.2647 13.715 16.2788 13.6106 16.313 13.5121C16.3472 13.4136 16.4009 13.323 16.4708 13.2456C17.7222 11.8482 18.4142 10.0382 18.4142 8.1623C18.4142 6.2864 17.7222 4.47643 16.4708 3.07899C16.4017 3.00159 16.3485 2.91134 16.3143 2.81339C16.28 2.71544 16.2654 2.6117 16.2713 2.50811C16.2772 2.40452 16.3034 2.3031 16.3484 2.20963C16.3935 2.11617 16.4565 2.0325 16.5339 1.96339C16.6113 1.89429 16.7016 1.8411 16.7995 1.80688C16.8975 1.77265 17.0012 1.75806 17.1048 1.76392C17.2084 1.76978 17.3098 1.79599 17.4033 1.84105C17.4967 1.88611 17.5804 1.94914 17.6495 2.02654C19.1627 3.70786 20 5.88979 20 8.15178C20 10.4138 19.1627 12.5957 17.6495 14.277C17.5777 14.3635 17.4876 14.4329 17.3857 14.4802C17.2837 14.5275 17.1725 14.5516 17.0602 14.5506Z" fill="#282018"/>
<path d="M14.5867 11.7195C14.4163 11.7173 14.2508 11.6622 14.1131 11.5617C13.9456 11.436 13.8349 11.2491 13.8053 11.0418C13.7757 10.8346 13.8296 10.6241 13.9552 10.4566C14.4571 9.79701 14.7289 8.99106 14.7289 8.16225C14.7289 7.33344 14.4571 6.52749 13.9552 5.86792C13.8296 5.70044 13.7757 5.48993 13.8053 5.28269C13.8349 5.07545 13.9456 4.88846 14.1131 4.76285C14.2806 4.63724 14.4911 4.58331 14.6983 4.61292C14.9056 4.64252 15.0926 4.75324 15.2182 4.92072C15.93 5.85143 16.3156 6.99055 16.3156 8.16225C16.3156 9.33395 15.93 10.4731 15.2182 11.4038C15.1435 11.5006 15.048 11.5794 14.9386 11.634C14.8293 11.6887 14.709 11.7179 14.5867 11.7195Z" fill="#282018"/>
</svg>
