<svg width="128" height="128" viewBox="0 0 17 17" fill="none" xmlns="http://www.w3.org/2000/svg">
<path d="M12.7075 6.96084L7.8965 11.8827C7.81786 11.9633 7.72446 12.0273 7.62163 12.0709C7.5188 12.1145 7.40857 12.137 7.29725 12.137C7.18593 12.137 7.0757 12.1145 6.97287 12.0709C6.87004 12.0273 6.77664 11.9633 6.698 11.8827L4.2925 9.42176C4.21381 9.34125 4.15138 9.24568 4.10879 9.14049C4.0662 9.0353 4.04428 8.92256 4.04428 8.8087C4.04428 8.69485 4.0662 8.58211 4.10879 8.47692C4.15138 8.37173 4.21381 8.27615 4.2925 8.19565C4.37119 8.11514 4.46462 8.05128 4.56744 8.00771C4.67026 7.96413 4.78046 7.94171 4.89175 7.94171C5.00304 7.94171 5.11324 7.96413 5.21606 8.00771C5.31888 8.05128 5.41231 8.11514 5.491 8.19565L7.293 10.0392L11.5005 5.73472C11.5791 5.65411 11.6725 5.59015 11.7754 5.54652C11.8782 5.50288 11.9884 5.48042 12.0998 5.48042C12.2111 5.48042 12.3213 5.50288 12.4241 5.54652C12.527 5.59015 12.6204 5.65411 12.699 5.73472C13.039 6.07386 13.039 6.6217 12.7075 6.96084ZM1.7 8.5C1.7 6.47387 2.567 4.65644 3.927 3.38685L5.2275 4.71731C5.28742 4.7774 5.36339 4.818 5.44583 4.83399C5.52827 4.84999 5.61349 4.84066 5.69075 4.80718C5.76802 4.7737 5.83387 4.71757 5.88 4.64587C5.92614 4.57417 5.95049 4.4901 5.95 4.40426V0.673746C5.95 0.430262 5.763 0.238954 5.525 0.238954H1.8785C1.496 0.238954 1.309 0.708529 1.581 0.9781L2.72 2.15204C1.054 3.73468 0 5.9869 0 8.5C0 12.6305 2.822 16.0915 6.596 16.9784C7.1315 17.1002 7.65 16.6915 7.65 16.1263C7.65 15.7175 7.3695 15.3697 6.9785 15.2741C3.961 14.5697 1.7 11.8044 1.7 8.5ZM17 8.5C17 4.36948 14.178 0.908533 10.404 0.0215579C9.8685 -0.100184 9.35 0.308521 9.35 0.87375C9.35 1.28245 9.6305 1.63029 10.0215 1.72594C13.039 2.43031 15.3 5.19558 15.3 8.5C15.3 10.5261 14.433 12.3436 13.073 13.6132L11.7725 12.2827C11.7126 12.2226 11.6366 12.182 11.5542 12.166C11.4717 12.15 11.3865 12.1593 11.3092 12.1928C11.232 12.2263 11.1661 12.2824 11.12 12.3541C11.0739 12.4258 11.0495 12.5099 11.05 12.5957V16.3263C11.05 16.5697 11.237 16.761 11.475 16.761H15.1215C15.504 16.761 15.691 16.2915 15.419 16.0219L14.28 14.848C15.946 13.2653 17 11.0131 17 8.5Z" fill="#282018"/>
</svg>
