<svg width="168" height="128" viewBox="0 0 21 16" fill="none" xmlns="http://www.w3.org/2000/svg">
<path d="M0.875 10.6667C1.35625 10.6667 1.75 10.2667 1.75 9.77778V6.22222C1.75 5.73333 1.35625 5.33333 0.875 5.33333C0.39375 5.33333 0 5.73333 0 6.22222V9.77778C0 10.2667 0.39375 10.6667 0.875 10.6667ZM3.5 12.4444C3.98125 12.4444 4.375 12.0444 4.375 11.5556V4.44444C4.375 3.95556 3.98125 3.55556 3.5 3.55556C3.01875 3.55556 2.625 3.95556 2.625 4.44444V11.5556C2.625 12.0444 3.01875 12.4444 3.5 12.4444ZM19.25 6.22222V9.77778C19.25 10.2667 19.6437 10.6667 20.125 10.6667C20.6063 10.6667 21 10.2667 21 9.77778V6.22222C21 5.73333 20.6063 5.33333 20.125 5.33333C19.6437 5.33333 19.25 5.73333 19.25 6.22222ZM17.5 12.4444C17.9813 12.4444 18.375 12.0444 18.375 11.5556V4.44444C18.375 3.95556 17.9813 3.55556 17.5 3.55556C17.0187 3.55556 16.625 3.95556 16.625 4.44444V11.5556C16.625 12.0444 17.0187 12.4444 17.5 12.4444ZM14.4375 0H6.5625C5.83625 0 5.25 0.595556 5.25 1.33333V14.6667C5.25 15.4044 5.83625 16 6.5625 16H14.4375C15.1637 16 15.75 15.4044 15.75 14.6667V1.33333C15.75 0.595556 15.1637 0 14.4375 0ZM14 14.2222H7V1.77778H14V14.2222Z" fill="#282018"/>
</svg>
